PathFileType	4	(X/Y/Z)	C:/Users/beibeiliu/ov580/test_trc/User1\sequence.17_training_dense_right.trc
DataRate	CameraRate	NumFrames	NumMarkers	Units	OrigDataRate	OrigDataStartFrame	OrigNumFrames
120	120	10	19	mm	120	110	292
Frame#	Time	ThumbCMC			ThumbMCP			ThumbIP			ThumbTip			IndexMCP			IndexPIP			IndexTip			MiddleMCP			MiddlePIP			MiddleTip			RingMCP			RingPIP			RingTip			PinkyMCP			PinkyPIP			PinkyTip			BackHand1			BackHand2			BackHand3	
		X0	Y0	Z0	X1	Y1	Z1	X2	Y2	Z2	X3	Y3	Z3	X4	Y4	Z4	X5	Y5	Z5	X6	Y6	Z6	X7	Y7	Z7	X8	Y8	Z8	X9	Y9	Z9	X10	Y10	Z10	X11	Y11	Z11	X12	Y12	Z12	X13	Y13	Z13	X14	Y14	Z14	X15	Y15	Z15	X16	Y16	Z16	X17	Y17	Z17	X18	Y18	Z18	
109	0.908333	123.016	25.3062	71.7635	102.305	14.8343	56.8667	76.8096	16.8819	40.8499	58.2871	16.0192	33.0981	139.985	40.6791	-8.93318	143.693	45.6661	-34.0471	152.967	54.3439	-60.9707	161.083	9.41365	-26.2968	146.232	-20.2821	-29.2754	143.001	-29.1102	8.80552	178.089	-9.67684	-14.4028	164.826	-37.9635	-7.52965	156.241	-35.5823	25.9837	192.05	-15.8929	0.21029	174.429	-38.1909	10.9197	161.404	-27.4684	37.9096	190.781	28.7983	36.7253	194.369	33.2669	70.8827	158.672	39.7949	56.4856	
110	0.916667	124.665	28.9713	65.8666	102.895	19.9514	52.1171	81.0959	25.3157	40.3184	61.0145	28.6328	30.9026	149.776	37.5097	-12.075	152.751	42.6207	-40.0698	158.25	49.3302	-62.2867	162.668	10.0839	-24.8312	150.665	-26.4868	-25.541	143.552	-28.3589	12.0581	181.142	-10.1265	-12.6079	160.587	-39.6475	-4.31775	155.173	-35.4834	24.7499	195.889	-19.7504	1.95111	175.143	-37.7481	11.0325	162.713	-30.7925	41.4113	195.157	26.6171	37.4356	194.558	30.446	73.3249	161.407	42.6222	51.9278	
111	0.925	130.307	28.2089	63.0563	108.325	22.0531	48.0819	87.6644	29.814	34.7313	69.9699	33.7631	25.1898	154.863	35.3547	-16.7828	159.028	38.6808	-42.7722	166.15	42.8474	-66.1778	170.201	3.74708	-25.4548	154.21	-27.7676	-27.8336	144.7	-28.1834	14.3546	185.511	-15.9356	-11.629	164.831	-41.2084	-2.42104	157.541	-34.1842	30.6536	198.896	-20.1849	5.54779	178.827	-41.0587	14.0567	165.201	-32.0459	40.4279	194.29	26.956	33.1778	198.97	30.5937	70.2967	163.747	42.6549	53.3486	
112	0.933333	131.979	29.8091	60.7819	112.987	23.9872	41.2316	93.1535	31.3711	28.3306	74.0094	37.7764	19.5011	156.929	31.908	-19.0785	166.452	33.1552	-45.5221	174.773	34.3176	-65.1815	170.634	-2.93633	-27.7667	160.572	-33.483	-25.5191	145.414	-31.6792	13.3399	185.641	-19.3058	-12.1216	167.089	-45.4375	1.62665	160.762	-34.6477	34.3545	203.445	-25.44	7.65102	182.204	-46.4798	18.3616	168.147	-30.7604	43.1917	201.068	25.6126	32.3395	199.468	31.6025	68.8747	166.345	39.7753	48.556	
113	0.941667	131.163	30.8278	61.1483	111.169	24.2697	44.5445	93.5137	32.8127	24.0213	76.8897	35.6105	18.4327	163.461	28.5052	-20.3004	166.808	28.8693	-44.098	183.439	30.2	-69.1287	179.424	-6.12654	-23.7566	162.914	-39.5505	-19.3446	150.473	-36.355	13.079	188.298	-22.0854	-9.56633	173.68	-49.5313	5.03987	161.895	-35.6897	36.2674	204.958	-30.035	8.66919	182.122	-45.2767	19.3911	169.79	-34.5156	44.2487	201.219	23.0427	32.2316	197.9	30.5438	71.5091	167.208	39.3896	49.2055	
114	0.95	132.344	28.1191	56.8272	114.327	20.4262	41.8123	97.7543	25.0443	23.853	78.2542	32.275	13.2115	164.419	25.4732	-22.7394	172.763	24.8909	-47.1572	186.785	26.0025	-68.4344	182.567	-10.5824	-25.3708	165.014	-39.1307	-22.3427	151.13	-37.1034	13.6497	190.633	-24.3776	-9.75418	173.407	-51.1983	7.08374	165.492	-40.7411	34.5507	209.97	-30.5561	10.1139	185.74	-48.6524	21.1028	171.694	-36.4189	44.4513	204.212	22.8667	36.7984	198.257	32.2667	66.3043	166.944	38.2388	48.2404	
115	0.958333	131.73	26.9695	60.0657	111.904	18.6087	42.0878	94.4729	22.6214	25.0721	78.1787	24.1045	12.587	167.706	23.8501	-20.5259	174.276	24.3485	-47.2567	185.418	26.5993	-71.4587	181.339	-9.41757	-25.5409	166.763	-43.822	-18.1566	150.183	-35.2074	16.9472	196.691	-23.7533	-6.1786	175.327	-50.1669	3.8055	166.65	-40.4794	34.9399	208.087	-29.6255	9.76256	186.431	-46.4992	20.0026	170.265	-34.1402	41.3054	203.17	22.3483	36.7616	198.242	30.9362	69.2454	171.186	39.2236	45.1931	
116	0.966667	134.455	24.8955	56.9614	111.115	15.079	40.9495	90.3592	18.8287	24.8168	75.7454	18.1368	16.8759	166.125	24.1049	-20.7423	172.254	25.7757	-48.3795	188.168	26.1836	-69.6942	179.33	-9.71444	-26.5697	167.956	-43.0249	-18.0503	154.446	-37.7506	16.8009	193.415	-25.7091	-8.48508	177.722	-51.2937	4.57897	166.645	-41.3408	32.8807	207.618	-27.9023	8.27591	190.581	-47.4835	16.7434	170.428	-32.3543	40.1247	201.325	23.2999	32.3203	197.227	34.1522	71.23	166.762	40.5184	47.8762	
117	0.975	133.216	22.1506	58.0618	109.168	11.9979	44.565	92.8076	11.0527	24.8398	70.1727	12.7461	16.9956	161.31	26.5697	-23.7695	168.277	26.6211	-46.1893	182.961	28.6767	-68.1975	178.921	-8.22341	-25.589	167.526	-38.724	-24.1805	153.534	-38.2962	15.2656	195.214	-24.2661	-7.88164	177.584	-49.2808	3.98068	163.522	-38.918	34.826	209.239	-29.8809	8.81693	190.681	-46.7906	16.5159	170.218	-31.4759	41.4086	199.163	24.5662	32.8488	199.449	30.7796	71.3255	166.076	37.8327	44.151	
118	0.983333	129.204	22.433	61.1432	109.085	8.83753	41.0132	89.3549	7.43602	28.0252	70.2267	6.58551	16.5096	158.018	27.0884	-19.0702	164.866	28.4202	-43.691	176.925	31.3649	-67.541	176.887	-4.40318	-23.4425	166.357	-37.9729	-23.8836	155.724	-38.4327	15.6742	193.329	-25.1061	-9.0003	176.002	-49.804	7.19294	162.253	-39.5722	33.8375	209.477	-23.6382	9.19184	188.924	-46.8776	20.8708	171.057	-32.9596	39.8046	199.722	26.4572	35.6836	198.148	31.3651	70.8657	165.667	39.3173	45.2033	
